PathFileType	4	(X/Y/Z)	D:\TRACE\spot_10-12-23\spot_arm_body_motion_1_5-platform.trc
DataRate	CameraRate	NumFrames	NumMarkers	Units	OrigDataRate	OrigDataStartFrame	OrigNumFrames
100.00	100.00	      30	5	mm	100.00	3501	      7000
Frame#	Time	Left_Front			Right_Front			Left_Aft			Right_Aft			Post			
		X1	Y1	Z1	X2	Y2	Z2	X3	Y3	Z3	X4	Y4	Z4	X5	Y5	Z5	

3501	35.000	-827.07953	2.05904	-654.44476	740.14734	-0.07970	-629.86035	-759.63739	18.97790	484.30893	648.38977	17.78843	585.95123	-39.14812	725.52551	-976.08826	
3502	35.010	-827.69147	2.53196	-654.47540	739.62262	0.22024	-629.80750	-760.23041	18.65962	484.35187	647.93610	17.54937	586.23004	-39.58447	725.91235	-975.27234	
3503	35.020	-828.06750	2.98991	-654.39661	739.11438	0.64800	-629.78461	-760.70764	18.32089	484.49176	647.42499	17.14380	586.29346	-40.11801	726.45325	-974.58698	
3504	35.030	-828.61322	3.50400	-654.27588	738.62079	1.10661	-629.71307	-761.23553	18.05127	484.58633	646.82367	16.69020	586.39618	-40.73969	727.31122	-973.71393	
3505	35.040	-829.08099	3.99318	-654.09149	738.12915	1.59645	-629.56488	-761.70117	17.81759	484.64282	646.24365	16.28463	586.47510	-41.20288	727.99573	-972.92548	
3506	35.050	-829.45618	4.36738	-654.00903	737.61646	2.00209	-629.41534	-762.26691	17.50552	484.71268	646.11438	16.03072	586.60645	-41.69757	728.63312	-972.40192	
3507	35.060	-829.88965	4.83093	-653.90082	737.31915	2.36909	-629.35388	-762.55383	17.15392	484.91336	645.57361	15.76797	586.66089	-42.15547	729.45032	-971.66400	
3508	35.070	-830.57849	5.23362	-653.63690	736.84375	2.95450	-629.21503	-762.87506	16.75643	485.08490	644.96820	15.25300	586.82166	-42.59363	730.11658	-970.97278	
3509	35.080	-831.02008	5.84763	-653.63617	736.58075	3.40611	-629.11554	-763.26007	16.46465	485.09839	644.62860	14.81712	586.92578	-42.74889	730.69714	-970.48108	
3510	35.090	-831.18384	6.30516	-653.54706	736.23346	3.86045	-629.00720	-763.64703	16.15471	485.24820	644.44250	14.35615	586.98090	-43.20715	731.47168	-969.87097	
3511	35.100	-831.38043	6.71923	-653.43970	735.96204	4.44078	-628.91376	-764.03479	15.84154	485.32007	644.17004	14.00519	587.05286	-43.38705	732.17279	-969.40479	
3512	35.110	-831.59552	7.04560	-653.41357	735.60541	4.87036	-628.78949	-764.51886	15.52387	485.47278	643.90643	13.87678	587.33862	-43.59048	732.74164	-969.04138	
3513	35.120	-831.93274	7.50395	-653.30029	735.35461	5.30765	-628.69867	-764.50049	15.33388	485.43341	643.65625	13.48153	587.44299	-44.03667	733.53906	-968.55237	
3514	35.130	-832.27869	8.07521	-653.15125	735.13171	5.67519	-628.64508	-764.73566	14.96948	485.54221	643.26178	13.16091	587.51093	-44.15326	733.98901	-967.94647	
3515	35.140	-832.41821	8.58335	-653.03638	734.93463	6.04528	-628.58380	-765.01129	14.55514	485.62994	643.01501	12.62885	587.55664	-44.23275	734.55762	-967.37756	
3516	35.150	-832.51135	8.95132	-652.84534	734.74573	6.48167	-628.46100	-765.21222	14.26722	485.72446	642.86768	12.24380	587.69690	-44.67352	735.55945	-967.03094	
3517	35.160	-832.60602	9.31116	-652.69482	734.62292	6.93773	-628.27063	-765.30103	14.01595	485.82605	642.71027	11.85170	587.69025	-60.69584	670.11981	-978.31879	
3518	35.170	-832.73395	9.65742	-652.57422	734.56622	7.34906	-628.15112	-765.31134	13.76933	485.96133	642.73871	11.65430	587.79504	-60.58134	670.70001	-977.95831	
3519	35.180	-832.89240	10.06001	-652.47107	734.51831	7.75776	-628.12402	-765.34167	13.58630	486.03964	642.71124	11.42838	588.12091	-45.04343	737.43005	-965.19983	
3520	35.190	-832.99213	10.61899	-652.35858	734.28558	8.10146	-628.01184	-765.43738	13.33793	486.15161	642.65454	11.08330	588.19342	-45.09708	738.04028	-964.60846	
3521	35.200	-832.92151	11.10587	-652.36768	734.19647	8.64045	-627.88611	-765.49292	12.99697	486.34222	642.62292	10.65266	588.22577	-45.18716	738.65912	-963.78168	
3522	35.210	-832.96509	11.47902	-652.27057	734.28571	9.13769	-627.78906	-765.58472	12.68499	486.43167	642.47034	10.18972	588.25818	-44.89201	739.15692	-963.07617	
3523	35.220	-832.87256	11.85093	-652.20660	734.30353	9.52983	-627.65857	-765.53479	12.43337	486.51114	642.35687	9.86871	588.35333	-44.93859	739.94366	-962.40314	
3524	35.230	-832.79840	12.35396	-652.13531	734.28259	10.00258	-627.57184	-765.54523	12.00750	486.60110	642.39929	9.59529	588.48291	-61.21925	672.95172	-973.68835	
3525	35.240	-832.81677	12.77893	-652.09949	734.29968	10.45104	-627.51782	-765.59393	11.70281	486.65201	642.52374	9.15869	588.35742	-44.01225	741.11786	-961.21185	
3526	35.250	-832.91010	13.32399	-651.94519	734.29718	10.82210	-627.43994	-765.59875	11.37449	486.73239	642.52338	8.81517	588.45435	-44.28518	741.76465	-960.74469	
3527	35.260	-832.91650	13.69971	-651.86108	734.28650	11.14158	-627.27515	-765.57043	11.06635	486.80685	642.49854	8.64455	588.85840	-44.73127	742.28851	-960.29382	
3528	35.270	-832.94720	14.00140	-651.76630	734.14185	11.38319	-627.17841	-765.51245	10.85824	486.96439	642.47998	8.33907	588.94141	-44.57570	742.70441	-959.89270	
3529	35.280	-832.92743	14.30918	-651.64026	734.28870	11.94696	-627.04041	-765.51099	10.60183	487.18250	642.48999	8.07841	589.02582	-44.66419	743.41071	-959.40381	
3530	35.290	-832.75684	14.61929	-651.51410	734.34631	12.38047	-627.01855	-765.47906	10.40533	487.32840	642.51056	7.73789	589.09973	-44.72495	744.10205	-958.98987	
